<svg width="152" height="30" viewBox="0 0 152 30" fill="none" xmlns="http://www.w3.org/2000/svg">
<path fill-rule="evenodd" clip-rule="evenodd" d="M148.075 22.858C148.167 23.9052 149.004 25.2381 150.456 25.2381H151.305C151.635 25.2381 151.904 24.9684 151.904 24.639V5.96575H151.9C151.884 5.65116 151.624 5.3992 151.305 5.3992H148.675C148.356 5.3992 148.096 5.65116 148.079 5.96575H148.075V7.48305C146.463 5.49609 143.922 4.67139 141.374 4.67139C135.581 4.67139 130.885 9.37106 130.885 15.1687C130.885 20.9668 135.581 25.6665 141.374 25.6665V25.667C143.922 25.667 146.7 24.6775 148.075 22.8557V22.858ZM141.383 21.9926C137.699 21.9926 134.713 18.9377 134.713 15.1687C134.713 11.4004 137.699 8.34543 141.383 8.34543C145.069 8.34543 148.055 11.4004 148.055 15.1687C148.055 18.9377 145.069 21.9926 141.383 21.9926Z" fill="#3A3C5B"/>
<path fill-rule="evenodd" clip-rule="evenodd" d="M127.559 23.4993L127.558 13.8367H127.558C127.558 8.38983 124.124 4.71533 118.649 4.71533C116.035 4.71533 113.893 6.22787 113.136 7.52718C112.972 6.51122 112.433 5.44331 110.762 5.44331H109.91C109.581 5.44331 109.312 5.71327 109.312 6.04269V22.9038C109.312 22.9044 109.312 22.9056 109.312 22.9064V24.7177H109.315C109.332 25.0317 109.592 25.2839 109.91 25.2839H112.541C112.582 25.2839 112.621 25.2792 112.659 25.2718C112.677 25.2683 112.693 25.2615 112.71 25.2567C112.729 25.2507 112.75 25.246 112.768 25.2384C112.792 25.2287 112.813 25.2157 112.835 25.2035C112.845 25.1969 112.857 25.1924 112.867 25.1855C112.893 25.1686 112.917 25.1482 112.941 25.1274C112.944 25.1236 112.949 25.1209 112.953 25.1174C112.979 25.0921 113.003 25.0642 113.024 25.0351C113.024 25.0347 113.024 25.0347 113.024 25.0347C113.09 24.9443 113.13 24.8352 113.137 24.7177H113.14V13.6868C113.14 10.7615 115.51 8.38982 118.433 8.38982C121.356 8.38982 123.726 10.7615 123.726 13.6868L123.729 22.9071L123.729 22.9038C123.729 22.912 123.73 22.9204 123.73 22.9291V24.7177H123.734C123.751 25.0317 124.011 25.2839 124.329 25.2839H126.96C127.001 25.2839 127.04 25.2792 127.078 25.2718C127.094 25.2689 127.108 25.2626 127.124 25.2583C127.145 25.2521 127.167 25.2467 127.188 25.2384C127.209 25.2295 127.229 25.217 127.249 25.2055C127.262 25.1985 127.275 25.1935 127.287 25.1855C127.311 25.1695 127.333 25.1502 127.355 25.1312C127.361 25.126 127.367 25.1222 127.372 25.117C127.397 25.0929 127.419 25.0669 127.44 25.0397C127.441 25.0376 127.443 25.036 127.444 25.0339C127.509 24.9443 127.549 24.836 127.556 24.7192C127.556 24.7183 127.556 24.7177 127.556 24.7177H127.559V23.4995L127.559 23.4993Z" fill="#3A3C5B"/>
<path fill-rule="evenodd" clip-rule="evenodd" d="M100.157 22.858C100.249 23.9052 101.086 25.2381 102.538 25.2381H103.387C103.716 25.2381 103.985 24.9684 103.985 24.639V5.96575H103.982C103.965 5.65116 103.704 5.3992 103.387 5.3992H100.756C100.438 5.3992 100.178 5.65116 100.16 5.96575H100.157V7.48305C98.5447 5.49609 96.0032 4.67139 93.4547 4.67139C87.6617 4.67139 82.9658 9.37105 82.9658 15.1688C82.9658 20.9668 87.6617 25.6666 93.4547 25.6666V25.667C96.0032 25.667 98.7808 24.6776 100.157 22.8557L100.157 22.858ZM93.4649 21.9926C89.7809 21.9926 86.794 18.9378 86.794 15.1688C86.794 11.4004 89.7809 8.34543 93.4649 8.34543C97.1494 8.34543 100.136 11.4004 100.136 15.1688C100.136 18.9378 97.1494 21.9926 93.4649 21.9926Z" fill="#3A3C5B"/>
<path fill-rule="evenodd" clip-rule="evenodd" d="M67.4082 20.1824C69.1645 21.4001 71.0817 21.9916 72.924 21.9916C74.6791 21.9916 76.4936 21.081 76.4936 19.496C76.4936 17.38 72.5399 17.0507 70.0557 16.2058C67.5711 15.3609 65.4311 13.6143 65.4311 10.7857C65.4311 6.45752 69.2847 4.66992 72.8814 4.66992C75.1603 4.66992 77.5115 5.42197 79.0359 6.49927C79.5609 6.89737 79.2412 7.35443 79.2412 7.35443L77.7861 9.4343C77.6225 9.66856 77.3365 9.87096 76.9261 9.6174C76.5155 9.36402 75.0757 8.34408 72.8814 8.34408C70.6869 8.34408 69.365 9.35828 69.365 10.6153C69.365 12.1228 71.0831 12.5969 73.0953 13.1107C76.6021 14.0566 80.4276 15.1937 80.4276 19.496C80.4276 23.3095 76.8633 25.6662 72.924 25.6662C69.9389 25.6662 67.3973 24.8146 65.2657 23.2491C64.8216 22.8044 65.1317 22.3913 65.1317 22.3913L66.5797 20.322C66.8743 19.9352 67.2458 20.0701 67.4082 20.1824Z" fill="#3A3C5B"/>
<path fill-rule="evenodd" clip-rule="evenodd" d="M57.2947 22.858C57.3866 23.9052 58.2243 25.2381 59.6753 25.2381H60.5245C60.8536 25.2381 61.1233 24.9684 61.1233 24.639V5.96575H61.1196C61.1024 5.65116 60.8425 5.3992 60.5245 5.3992H57.8935C57.5753 5.3992 57.3155 5.65116 57.2978 5.96575H57.2947V7.48305C55.6827 5.49609 53.1412 4.67139 50.5926 4.67139C44.7997 4.67139 40.1035 9.37105 40.1035 15.1688C40.1035 20.9668 44.7997 25.6666 50.5926 25.6666V25.667C53.1412 25.667 55.9186 24.6776 57.2942 22.8557L57.2947 22.858ZM50.6029 21.9926C46.9186 21.9926 43.9318 18.9378 43.9318 15.1688C43.9318 11.4004 46.9186 8.34543 50.6029 8.34543C54.2871 8.34543 57.2736 11.4004 57.2736 15.1688C57.2736 18.9378 54.2871 21.9926 50.6029 21.9926Z" fill="#3A3C5B"/>
<path fill-rule="evenodd" clip-rule="evenodd" d="M25.398 15.8822C21.4996 15.8822 18.3392 19.0425 18.3392 22.9412C18.3392 26.8397 21.4996 30 25.398 30C29.2965 30 32.4568 26.8397 32.4568 22.9412C32.4568 19.0425 29.2965 15.8822 25.398 15.8822ZM7.05877 15.8829C3.16035 15.8829 0 19.0425 0 22.9412C0 26.8397 3.16035 30 7.05877 30C10.9573 30 14.1179 26.8397 14.1179 22.9412C14.1179 19.0425 10.9573 15.8829 7.05877 15.8829ZM23.287 7.05858C23.287 10.9573 20.1269 14.1179 16.2284 14.1179C12.3298 14.1179 9.16965 10.9573 9.16965 7.05858C9.16965 3.16065 12.3298 0 16.2284 0C20.1269 0 23.287 3.16065 23.287 7.05858Z" fill="#3A3C5B"/>
</svg>
