<svg width="121" height="30" viewBox="0 0 121 30" fill="none" xmlns="http://www.w3.org/2000/svg">
<path fill-rule="evenodd" clip-rule="evenodd" d="M0 6.84828L13.1372 0L26.4155 6.84828L13.1372 13.7138L0 6.84828ZM78.8663 10.1737V10.0083C78.8663 7.75479 80.1866 7.03207 82.4103 7.19215V3.07168C77.0831 2.7456 74.5583 5.42539 74.5583 10.0083V10.1737H72.1492V14.2948H74.5583V26.7688H78.8663V14.2948H83.8233V26.7688H88.1313V14.2948H91.6753V10.1737H88.1313V10.0083C88.1313 7.75479 89.4285 7.03207 91.6753 7.19215V3.07168C86.3481 2.7456 83.8233 5.42539 83.8233 10.0083V10.1737H78.8663ZM48.7545 14.6861C50.1208 13.5952 50.9546 12.0359 50.9546 10.032C50.9546 6.1481 47.8045 3.49262 43.8436 3.49262H34.6478V26.7214H44.5847C48.6382 26.7214 51.881 23.9764 51.881 19.9982C51.835 17.5971 50.6304 15.7586 48.7545 14.6861ZM43.8667 7.79688C45.3493 7.79688 46.3685 8.8931 46.3685 10.3581C46.3685 11.8278 45.3027 12.9187 43.8667 12.9187H39.2575V7.79688H43.8667ZM44.5616 22.4646H39.2575V16.9918H44.5616C46.137 16.9918 47.2719 18.1538 47.2719 19.7131C47.2719 21.2966 46.137 22.4646 44.5616 22.4646ZM65.3158 10.15V19.1089C65.3158 21.9962 63.741 23.2294 61.6331 23.2294C59.6869 23.2294 58.3206 22.0674 58.3206 19.8079V10.15H54.012V20.3421C54.012 24.7649 56.7689 27.2135 60.3358 27.2135C62.5826 27.2135 64.3197 26.3716 65.2928 24.8835V26.7451H69.6008V10.15H65.3158ZM109.534 20.2051H96.9339C97.5592 22.3934 99.3654 23.3242 101.613 23.3242C103.303 23.3242 104.647 22.6241 105.365 21.6701L108.839 23.6503C107.288 25.9086 104.786 27.2135 101.566 27.2135C95.9608 27.2135 92.4169 23.3954 92.4169 18.439C92.4169 13.4766 95.9839 9.65791 101.242 9.65791C106.176 9.65791 109.697 13.5478 109.697 18.439C109.697 19.0852 109.627 19.6484 109.534 20.2051ZM101.242 13.5478C98.9261 13.5478 97.3502 14.7809 96.8636 16.8969H105.388C104.855 14.5023 103.049 13.5478 101.242 13.5478ZM115.927 13.0136V10.15H111.619V26.7451H115.927V18.8065C115.927 15.3139 118.754 14.3185 121 14.5965V9.82451C118.893 9.82451 116.785 10.7553 115.927 13.0136ZM13.1372 25.4586L4.17457 20.5674L0 22.8381L13.1372 30L26.4155 22.8381L22.1937 20.5674L13.1372 25.4586ZM4.17457 12.8541L13.1372 17.2882L22.1937 12.8541L26.4155 14.9232L13.1372 21.427L0 14.9232L4.17457 12.8541Z" fill="#3A3C5B"/>
</svg>
