<svg width="45" height="45" viewBox="0 0 45 45" fill="none" xmlns="http://www.w3.org/2000/svg">
<path d="M41.25 22.5C41.25 12.15 32.85 3.75 22.5 3.75C12.15 3.75 3.75 12.15 3.75 22.5C3.75 32.85 12.15 41.25 22.5 41.25" stroke="#F6F6F6" stroke-width="1.5" stroke-linecap="round" stroke-linejoin="round"/>
<g style="mix-blend-mode:lighten">
<path d="M14.999 5.625H16.874C13.2178 16.575 13.2178 28.425 16.874 39.375H14.999" stroke="#F6F6F6" stroke-width="1.5" stroke-linecap="round" stroke-linejoin="round"/>
<path d="M28.125 5.625C29.9438 11.1 30.8625 16.8 30.8625 22.5" stroke="#F6F6F6" stroke-width="1.5" stroke-linecap="round" stroke-linejoin="round"/>
<path d="M5.625 30V28.125C11.1 29.9438 16.8 30.8625 22.5 30.8625" stroke="#F6F6F6" stroke-width="1.5" stroke-linecap="round" stroke-linejoin="round"/>
<path d="M5.625 16.875C16.575 13.2188 28.425 13.2188 39.375 16.875" stroke="#F6F6F6" stroke-width="1.5" stroke-linecap="round" stroke-linejoin="round"/>
</g>
<path d="M34.125 40.125C37.4387 40.125 40.125 37.4387 40.125 34.125C40.125 30.8113 37.4387 28.125 34.125 28.125C30.8113 28.125 28.125 30.8113 28.125 34.125C28.125 37.4387 30.8113 40.125 34.125 40.125Z" stroke="#F6F6F6" stroke-width="1.5" stroke-linecap="round" stroke-linejoin="round"/>
<path d="M41.25 41.25L39.375 39.375" stroke="#F6F6F6" stroke-width="1.5" stroke-linecap="round" stroke-linejoin="round"/>
</svg>
