<svg width="107" height="35" viewBox="0 0 107 35" fill="none" xmlns="http://www.w3.org/2000/svg">
<path d="M20.0389 12.4264C22.0432 12.4264 24.0475 12.4306 26.0518 12.4222C26.2237 12.4222 26.2908 12.46 26.316 12.6403C26.4502 13.6048 26.4879 14.5693 26.4334 15.5421C26.3663 16.7331 26.165 17.8947 25.8086 19.0311C24.9029 21.912 23.0454 24.0129 20.4792 25.5226C19.0032 26.3906 17.3888 26.8519 15.6906 27.049C13.7031 27.2796 11.7491 27.158 9.82862 26.5793C4.96878 25.1116 1.12368 21.0481 0.238932 16.037C-0.637432 11.0719 0.914026 6.88687 4.61236 3.49857C6.41541 1.84635 8.54552 0.768636 10.944 0.303164C15.4768 -0.57746 19.5105 0.441547 22.9405 3.6076C23.0495 3.70824 23.0705 3.76276 22.9531 3.88017C22.1606 4.66015 21.3765 5.44433 20.5966 6.2327C20.5001 6.32915 20.4456 6.35011 20.3324 6.24528C18.9529 4.98724 17.3595 4.14436 15.5061 3.85501C12.2984 3.35599 9.45123 4.14436 7.06954 6.38785C5.41745 7.93943 4.43625 9.86422 4.13854 12.1035C3.69407 15.4709 4.64172 18.4063 7.0947 20.7882C8.59584 22.2475 10.4157 23.0945 12.4996 23.3545C14.2817 23.5768 16.0303 23.4132 17.6949 22.7171C19.3093 22.042 20.6553 21.0104 21.5694 19.4924C22.148 18.5279 22.4332 17.4586 22.6093 16.3557C22.6386 16.167 22.5757 16.1376 22.4038 16.1418C19.6112 16.146 16.8144 16.146 14.0217 16.1544C13.8121 16.1544 13.7576 16.1041 13.7576 15.8902C13.7702 14.8083 13.766 13.7264 13.7576 12.6445C13.7576 12.4684 13.8037 12.4264 13.9756 12.4264C16.0051 12.4264 18.022 12.4264 20.0389 12.4264Z" fill="#3A3C5B"/>
<path d="M82.5856 18.5211C82.5856 21.1378 82.6107 23.7545 82.5772 26.3713C82.552 28.1786 82.1872 29.9147 81.2228 31.4831C80.229 33.0975 78.7866 34.1291 76.971 34.624C75.0128 35.1565 73.063 35.1565 71.1551 34.4017C69.0292 33.5546 67.5364 32.0366 66.5804 29.9734C66.5301 29.8644 66.5552 29.8183 66.6601 29.7763C67.6832 29.3528 68.7105 28.9293 69.7294 28.4973C69.8888 28.4302 69.9013 28.5309 69.9475 28.6231C70.4884 29.747 71.2809 30.6234 72.4256 31.1602C73.998 31.894 76.451 31.5879 77.6628 30.2712C78.3002 29.5792 78.644 28.7615 78.8201 27.8515C78.9837 27.0003 78.9375 26.1406 78.9417 25.2852C78.9417 25.2474 78.9543 25.1971 78.9082 25.1719C78.8579 25.1468 78.8117 25.1677 78.7782 25.2055C78.7488 25.2348 78.7237 25.2684 78.6943 25.2977C77.7509 26.3251 76.5684 26.9164 75.2015 27.0632C71.7966 27.4406 69.2053 26.019 67.2932 23.2849C66.1862 21.7039 65.7376 19.9008 65.834 17.976C66.0311 14.1012 68.7147 10.8639 72.2369 9.92875C74.1112 9.42973 75.9143 9.58908 77.6083 10.5997C78.0234 10.8471 78.3966 11.1532 78.7237 11.5139C78.774 11.5684 78.8201 11.6523 78.9082 11.6103C78.9879 11.5726 78.9459 11.4845 78.9459 11.4216C78.9501 11.0736 78.9543 10.7255 78.9459 10.3733C78.9417 10.2433 78.9753 10.1929 79.1178 10.1929C80.2206 10.1971 81.3234 10.2013 82.4304 10.1929C82.6275 10.1929 82.5981 10.2978 82.5981 10.4152C82.5981 13.1158 82.5981 15.8164 82.5981 18.5169C82.5898 18.5211 82.5856 18.5211 82.5856 18.5211ZM79.2143 18.4666C79.2101 17.3679 78.9879 16.3447 78.4302 15.4096C77.6544 14.1138 76.5307 13.2877 75.0044 13.1451C73.3145 12.9858 71.9224 13.6106 70.8658 14.9273C69.8804 16.1518 69.5491 17.5818 69.721 19.1292C69.893 20.6514 70.5639 21.9052 71.8092 22.8194C73.7926 24.2787 76.5055 23.9265 78.036 22.0101C78.8663 20.9701 79.2059 19.7624 79.2143 18.4666Z" fill="#3A3C5B"/>
<path d="M46.8877 18.4106C46.8835 13.4833 50.7076 9.67149 55.6639 9.6631C60.616 9.65471 64.4359 13.4582 64.4401 18.4022C64.4443 23.3295 60.6202 27.1498 55.6723 27.154C50.7412 27.1623 46.8919 23.3295 46.8877 18.4106ZM60.6034 18.419C60.6076 17.7145 60.4902 17.031 60.247 16.3684C59.0016 12.9759 54.754 12.0072 52.2465 14.5443C50.3219 16.49 50.217 19.9664 52.0243 22.0254C53.6806 23.9124 56.3767 24.2731 58.3978 22.8473C59.9157 21.7696 60.5615 20.239 60.6034 18.419Z" fill="#3A3C5B"/>
<path d="M36.7369 9.66309C41.6931 9.66309 45.5047 13.4623 45.5089 18.4064C45.5131 23.3337 41.6806 27.1539 36.7369 27.1539C31.7932 27.1539 27.9607 23.3295 27.9648 18.4064C27.969 13.4623 31.7806 9.66309 36.7369 9.66309ZM36.7704 23.7111C38.2254 23.6776 39.4918 23.1199 40.4268 21.9541C41.7896 20.2599 42.0244 18.3351 41.2864 16.3349C40.6071 14.4897 39.2318 13.3701 37.261 13.152C35.416 12.9466 33.8939 13.6469 32.8121 15.1565C31.7638 16.6116 31.5709 18.2555 32.0112 19.9664C32.5731 22.1721 34.5271 23.7069 36.7704 23.7111Z" fill="#3A3C5B"/>
<path d="M98.6869 23.7043C100.695 23.7085 102.041 22.8992 103.06 21.4902C103.186 21.3183 103.257 21.3099 103.429 21.4273C104.293 22.0186 105.165 22.5973 106.042 23.1676C106.176 23.2556 106.18 23.3101 106.088 23.4317C104.524 25.5536 102.465 26.8494 99.8233 27.0968C97.1271 27.3526 94.7412 26.5936 92.7788 24.6814C91.4496 23.3856 90.6529 21.7879 90.3594 19.9638C90.0155 17.8293 90.2923 15.7745 91.349 13.8665C92.6069 11.602 94.5315 10.2224 97.0894 9.78208C100.394 9.21177 103.329 10.6082 105.14 13.552C105.639 14.3571 105.966 15.2378 106.318 16.11C106.381 16.2651 106.26 16.2526 106.188 16.2819C105.023 16.7684 103.857 17.2464 102.691 17.7287C100.083 18.8064 97.4793 19.8883 94.867 20.9618C94.6951 21.0331 94.6699 21.0876 94.7622 21.2512C95.3828 22.354 96.2382 23.1634 97.4835 23.5156C97.9573 23.654 98.4354 23.7001 98.6869 23.7043ZM94.0284 17.8377C94.0284 17.8125 94.0284 17.8377 94.0284 17.867C94.0284 18.1438 94.0284 18.1438 94.2884 18.0348C95.4079 17.5693 96.5275 17.108 97.647 16.6426C98.9847 16.089 100.322 15.5271 101.664 14.9778C101.819 14.9149 101.857 14.8562 101.769 14.7094C101.672 14.5458 101.584 14.3823 101.454 14.2397C100.494 13.1955 99.2782 12.8685 97.9322 13.1201C95.6511 13.5478 94.0829 15.4642 94.0284 17.8377Z" fill="#3A3C5B"/>
<path d="M88.6089 13.8237C88.6089 18.0046 88.6089 22.1813 88.6131 26.3621C88.6131 26.576 88.5628 26.6263 88.3489 26.6221C87.2545 26.6095 86.1559 26.6137 85.0615 26.6179C84.9064 26.6179 84.8477 26.5928 84.8477 26.4166C84.8518 18.0088 84.8518 9.60093 84.8477 1.19307C84.8477 1.02953 84.8854 0.983398 85.0531 0.983398C86.1643 0.991785 87.2755 0.991785 88.3825 0.983398C88.5795 0.983398 88.6089 1.0463 88.6089 1.21823C88.6089 5.42426 88.6089 9.6219 88.6089 13.8237Z" fill="#3A3C5B"/>
</svg>
