<svg width="172" height="45" viewBox="0 0 172 45" fill="none" xmlns="http://www.w3.org/2000/svg">
<path d="M37.9788 0H8.17265C3.65902 0 0 3.65921 0 8.17308V36.8269C0 41.3408 3.65902 45 8.17265 45H37.9788C42.4924 45 46.1515 41.3408 46.1515 36.8269V8.17308C46.1515 3.65921 42.4924 0 37.9788 0Z" fill="#3A3C5B"/>
<path d="M22.3692 27.0092H15.2175L13.7624 31.5296C13.7425 31.612 13.6946 31.685 13.6267 31.7358C13.5589 31.7867 13.4755 31.8123 13.3908 31.8083H9.76852C9.56195 31.8083 9.48971 31.6947 9.5518 31.4677L15.7437 13.6338C15.8057 13.4481 15.8676 13.2365 15.9296 12.9991C16.0105 12.586 16.052 12.1661 16.0534 11.7452C16.0492 11.7158 16.0519 11.6857 16.0613 11.6575C16.0707 11.6293 16.0866 11.6037 16.1076 11.5826C16.1286 11.5616 16.1542 11.5458 16.1825 11.5364C16.2107 11.5269 16.2407 11.5242 16.2701 11.5284H21.1927C21.3369 11.5284 21.4195 11.58 21.4404 11.6833L28.4683 31.4986C28.5302 31.7052 28.4683 31.8084 28.2825 31.8082H24.2577C24.1886 31.8159 24.119 31.7981 24.0621 31.7582C24.0051 31.7184 23.9646 31.6591 23.9481 31.5915L22.3692 27.0092ZM16.332 23.1081H21.2237C21.0998 22.6954 20.9553 22.231 20.7902 21.7148C20.6248 21.1991 20.4494 20.6469 20.264 20.0583C20.0781 19.4701 19.8924 18.8818 19.7066 18.2935C19.5209 17.7053 19.3506 17.1377 19.1958 16.5906C19.041 16.044 18.9017 15.5435 18.7779 15.089H18.7469C18.5726 15.9252 18.3556 16.7519 18.0968 17.5659C17.8075 18.4948 17.5133 19.4443 17.2143 20.4144C16.9149 21.3849 16.6208 22.2827 16.332 23.1081Z" fill="white"/>
<path d="M32.6535 14.8103C32.3377 14.823 32.0228 14.7688 31.7294 14.6515C31.436 14.5341 31.1706 14.3561 30.9507 14.1291C30.7314 13.8923 30.5611 13.6145 30.4495 13.3116C30.3379 13.0088 30.2872 12.6868 30.3005 12.3643C30.2892 12.045 30.3455 11.7269 30.4655 11.4308C30.5855 11.1347 30.7667 10.8673 30.9971 10.6459C31.2253 10.4269 31.4946 10.2553 31.7896 10.141C32.0845 10.0268 32.3992 9.97214 32.7154 9.98029C33.4585 9.98029 34.0416 10.2022 34.4647 10.6459C34.6782 10.8766 34.8442 11.1471 34.9531 11.4419C35.062 11.7368 35.1117 12.0502 35.0993 12.3643C35.1122 12.6881 35.06 13.0111 34.9456 13.3143C34.8313 13.6175 34.6572 13.8946 34.4337 14.1291C34.2001 14.3594 33.9213 14.5388 33.6149 14.6561C33.3085 14.7733 32.9812 14.8258 32.6535 14.8103ZM30.5172 31.4985V16.6989C30.5172 16.5132 30.5995 16.4202 30.7649 16.4202H34.573C34.738 16.4202 34.8206 16.5131 34.8207 16.6989V31.4985C34.8207 31.7051 34.7381 31.8083 34.573 31.8081H30.7959C30.6102 31.8081 30.5173 31.7049 30.5172 31.4985Z" fill="white"/>
<path d="M63.1067 14.968V32.7485C63.1067 32.943 63.0512 32.9986 62.8845 32.9986H59.9674C59.8007 32.9986 59.7451 32.9152 59.7451 32.7485V14.968C59.7451 14.7736 59.8285 14.7458 59.9674 14.7458H62.8845C63.0512 14.7458 63.1067 14.8013 63.1067 14.968Z" fill="#3A3C5B"/>
<path d="M66.7648 29.6925V13.44C66.7648 13.3011 66.8482 13.2178 67.0149 13.2178H69.8764C70.0431 13.2178 70.1265 13.3011 70.1265 13.44V29.3869C70.1265 30.2482 70.4321 30.526 71.0988 30.526C71.3211 30.526 71.3767 30.526 71.6267 30.4982C71.71 30.4704 71.7378 30.526 71.7378 30.6649V32.7485C71.7378 32.943 71.71 32.9708 71.5711 33.0542C71.2655 33.1931 70.7655 33.2764 69.9876 33.2764C68.2095 33.2764 66.7648 32.6096 66.7648 29.6925Z" fill="#3A3C5B"/>
<path d="M74.1173 29.6925V13.44C74.1173 13.3011 74.2007 13.2178 74.3673 13.2178H77.2289C77.3956 13.2178 77.4789 13.3011 77.4789 13.44V29.3869C77.4789 30.2482 77.7845 30.526 78.4513 30.526C78.6736 30.526 78.7291 30.526 78.9792 30.4982C79.0625 30.4704 79.0903 30.526 79.0903 30.6649V32.7485C79.0903 32.943 79.0625 32.9708 78.9236 33.0542C78.618 33.1931 78.1179 33.2764 77.34 33.2764C75.562 33.2764 74.1173 32.6096 74.1173 29.6925Z" fill="#3A3C5B"/>
<path d="M92.8656 19.4965V29.9426C92.8656 31.3872 92.9767 32.2207 93.0323 32.8041C93.0601 32.943 92.9767 32.9986 92.81 32.9986H90.2541C90.0596 32.9986 90.0041 32.943 89.9763 32.8319C89.8929 32.5541 89.8096 32.1373 89.7818 31.8595C88.5872 32.9708 87.1703 33.2764 85.9201 33.2764C83.2808 33.2764 81.2527 31.8595 81.2527 27.97V19.4965C81.2527 19.3298 81.3083 19.302 81.475 19.302H84.3921C84.5588 19.302 84.5866 19.3576 84.5866 19.4965V27.5811C84.5866 29.3036 85.3367 30.3593 87.0036 30.3593C88.0593 30.3593 88.8372 29.9981 89.5318 29.3591V19.4965C89.5318 19.3576 89.5873 19.302 89.754 19.302H92.6711C92.8378 19.302 92.8656 19.3576 92.8656 19.4965Z" fill="#3A3C5B"/>
<path d="M104.357 22.5248C103.496 22.0525 102.107 21.7191 100.885 21.7191C99.4122 21.7191 98.9121 22.3303 98.9121 22.9137C98.9121 23.5249 99.3288 23.9416 101.107 24.6362C104.274 25.803 105.358 27.0532 105.358 29.0258C105.358 31.6373 103.302 33.2764 99.8845 33.2764C98.2453 33.2764 96.8007 32.9708 95.9672 32.4985C95.8283 32.4152 95.7727 32.3596 95.7727 32.1929V29.5536C95.7727 29.4147 95.8839 29.3591 95.995 29.4147C97.1896 30.1926 98.7176 30.526 99.9678 30.526C101.412 30.526 102.107 30.0259 102.107 29.3036C102.107 28.609 101.579 28.1645 99.8567 27.47C96.8284 26.3587 95.7449 25.1085 95.7449 23.1082C95.7449 20.9967 97.4674 19.0242 100.94 19.0242C102.552 19.0242 103.774 19.2465 104.441 19.5799C104.58 19.6632 104.607 19.7743 104.607 19.9132V22.3581C104.607 22.497 104.524 22.5803 104.357 22.5248Z" fill="#3A3C5B"/>
<path d="M114.558 30.5538V32.5541C114.558 32.7208 114.531 32.8319 114.392 32.8875C113.642 33.1653 112.947 33.2764 112.03 33.2764C109.752 33.2764 108.391 32.1651 108.391 29.4147V22.108H106.64C106.502 22.0802 106.446 22.0247 106.446 21.858V19.5243C106.446 19.3576 106.502 19.302 106.668 19.302H108.419C108.446 18.3297 108.557 16.5794 108.696 15.8848C108.724 15.7459 108.78 15.6626 108.919 15.6348L111.725 15.2459C111.863 15.2181 111.919 15.2459 111.919 15.3848C111.836 16.3016 111.78 17.9407 111.78 19.302H114.475C114.614 19.302 114.669 19.3576 114.669 19.4965V21.9136C114.669 22.0525 114.614 22.108 114.475 22.108H111.752V28.6924C111.752 29.9148 112.141 30.4982 113.336 30.4982C113.697 30.4982 114.003 30.4704 114.392 30.3871C114.475 30.3593 114.558 30.3871 114.558 30.5538Z" fill="#3A3C5B"/>
<path d="M116.958 19.302H119.569C119.736 19.302 119.819 19.3576 119.875 19.5243C120.014 19.8855 120.125 20.58 120.153 21.1912C121.097 20.0244 122.681 19.0242 124.598 19.0242C124.764 19.0242 124.82 19.052 124.82 19.2187V22.1636C124.82 22.3025 124.764 22.3581 124.57 22.3581C122.597 22.3025 120.958 22.9971 120.319 23.8305V32.7763C120.319 32.943 120.236 32.9986 120.069 32.9986H117.18C116.985 32.9986 116.93 32.9152 116.93 32.7763V23.1915C116.93 21.9969 116.902 20.3855 116.791 19.4687C116.791 19.3298 116.819 19.302 116.958 19.302Z" fill="#3A3C5B"/>
<path d="M133.509 30.3037V26.8865C133.092 26.831 132.62 26.8032 131.981 26.8032C129.786 26.8032 128.814 27.5255 128.814 28.7202C128.814 29.7481 129.536 30.6371 131.536 30.6371C132.259 30.6371 132.897 30.5538 133.509 30.3037ZM136.759 24.5251V30.1648C136.759 30.776 136.759 31.3317 136.815 31.9151C136.815 31.9706 136.815 31.9984 136.759 32.0262C134.481 32.9986 132.87 33.2764 130.981 33.2764C127.952 33.2764 125.535 31.8595 125.535 28.7202C125.535 25.7753 128.175 24.3028 131.786 24.3028C132.62 24.3028 133.259 24.3306 133.509 24.3584V24.025C133.509 23.386 133.148 21.9413 130.703 21.9413C129.314 21.9413 128.091 22.2192 127.063 22.7192C126.98 22.747 126.841 22.7192 126.841 22.5525V20.1355C126.841 19.9966 126.869 19.941 127.008 19.8577C128.202 19.302 129.73 19.0242 131.231 19.0242C135.092 19.0242 136.759 21.4413 136.759 24.5251Z" fill="#3A3C5B"/>
<path d="M146.6 30.5538V32.5541C146.6 32.7208 146.572 32.8319 146.433 32.8875C145.683 33.1653 144.989 33.2764 144.072 33.2764C141.794 33.2764 140.432 32.1651 140.432 29.4147V22.108H138.682C138.543 22.0802 138.488 22.0247 138.488 21.858V19.5243C138.488 19.3576 138.543 19.302 138.71 19.302H140.46C140.488 18.3297 140.599 16.5794 140.738 15.8848C140.766 15.7459 140.821 15.6626 140.96 15.6348L143.766 15.2459C143.905 15.2181 143.961 15.2459 143.961 15.3848C143.877 16.3016 143.822 17.9407 143.822 19.302H146.517C146.655 19.302 146.711 19.3576 146.711 19.4965V21.9136C146.711 22.0525 146.655 22.108 146.517 22.108H143.794V28.6924C143.794 29.9148 144.183 30.4982 145.377 30.4982C145.739 30.4982 146.044 30.4704 146.433 30.3871C146.517 30.3593 146.6 30.3871 146.6 30.5538Z" fill="#3A3C5B"/>
<path d="M154.78 19.0242C159.058 19.0242 161.392 22.2747 161.392 26.0809C161.392 30.3871 158.641 33.2764 154.724 33.2764C150.085 33.2764 148.029 29.6925 148.029 26.1642C148.029 22.2192 150.612 19.0242 154.78 19.0242ZM154.613 21.8302C152.752 21.8302 151.418 23.4693 151.418 26.1086C151.418 28.6646 152.668 30.4426 154.78 30.4426C156.502 30.4426 157.975 29.0258 157.975 26.1642C157.975 23.8583 156.975 21.8302 154.613 21.8302Z" fill="#3A3C5B"/>
<path d="M164.03 19.302H166.641C166.808 19.302 166.891 19.3576 166.947 19.5243C167.086 19.8855 167.197 20.58 167.225 21.1912C168.169 20.0244 169.753 19.0242 171.67 19.0242C171.836 19.0242 171.892 19.052 171.892 19.2187V22.1636C171.892 22.3025 171.836 22.3581 171.642 22.3581C169.669 22.3025 168.03 22.9971 167.391 23.8305V32.7763C167.391 32.943 167.308 32.9986 167.141 32.9986H164.252C164.057 32.9986 164.002 32.9152 164.002 32.7763V23.1915C164.002 21.9969 163.974 20.3855 163.863 19.4687C163.863 19.3298 163.891 19.302 164.03 19.302Z" fill="#3A3C5B"/>
</svg>
