<svg width="133" height="30" viewBox="0 0 133 30" fill="none" xmlns="http://www.w3.org/2000/svg">
<path d="M6.45297 15.566C6.23158 15.5549 6.00965 15.57 5.79177 15.6108C5.4283 15.6694 5.08013 15.7998 4.76755 15.9944C4.45497 16.1889 4.18424 16.4437 3.97112 16.7439C3.758 17.0442 3.60676 17.3838 3.52621 17.743C3.44566 18.1023 3.43741 18.474 3.50194 18.8364C3.66035 20.3313 5.25412 21.5919 6.72952 21.6294C6.88095 21.6333 7.0324 21.6232 7.18199 21.5994C8.77855 21.3409 9.19657 19.6957 8.9334 18.0797C8.63613 16.2551 7.33567 15.6119 6.45297 15.566ZM8.01737 19.889C7.94997 19.9899 7.85642 20.0706 7.74672 20.1224C7.63702 20.1743 7.51528 20.1954 7.39453 20.1834C7.18227 20.1666 6.98433 20.0697 6.84081 19.9125C6.69729 19.7552 6.61891 19.5492 6.62156 19.3363C6.61787 19.0526 6.67257 18.7712 6.78225 18.5095C6.85075 18.3432 6.85734 18.158 6.80081 17.9873C6.74428 17.8166 6.62839 17.6719 6.47421 17.5794C6.28475 17.4619 6.05743 17.4217 5.83917 17.4669C5.62777 17.5075 5.44097 17.63 5.31944 17.8077C5.2374 17.9403 5.17336 18.0832 5.12899 18.2327C5.12034 18.2589 5.11348 18.2794 5.10827 18.2928C5.03593 18.4773 4.92049 18.5312 4.84243 18.5212C4.81369 18.5159 4.78706 18.5025 4.76574 18.4825C4.74441 18.4625 4.72928 18.4369 4.72216 18.4085C4.68167 18.1622 4.70065 17.9098 4.7775 17.6724C4.85435 17.4349 4.98685 17.2193 5.16395 17.0434C5.3182 16.8895 5.50555 16.7728 5.71172 16.7022C5.9179 16.6317 6.13746 16.6091 6.35369 16.6362C6.58074 16.6635 6.79775 16.7457 6.98596 16.8756C7.17417 17.0055 7.32793 17.1792 7.43395 17.3819C7.53596 17.6257 7.57723 17.8907 7.55419 18.1541C7.53116 18.4174 7.44453 18.6712 7.30173 18.8936C7.28368 18.9321 7.26715 18.9674 7.25303 18.9989C7.20168 19.086 7.17333 19.1848 7.17066 19.2859C7.16799 19.387 7.19109 19.4872 7.23778 19.5769C7.27886 19.6316 7.33249 19.6757 7.39416 19.7053C7.45582 19.735 7.52371 19.7494 7.59211 19.7474C7.65741 19.7466 7.72237 19.7379 7.78561 19.7216C7.86761 19.7035 7.95241 19.6848 8.00402 19.7462C8.02115 19.7655 8.03167 19.7897 8.03407 19.8154C8.03647 19.8411 8.03062 19.8669 8.01737 19.889Z" fill="white"/>
<path d="M26.8544 22.9548C27.1875 22.1095 27.38 21.2154 27.4244 20.308C27.4244 19.1923 26.7927 18.7298 26.3905 18.7298C26.3782 18.6868 26.2987 18.3959 26.1891 18.0456C26.1264 17.8426 26.0521 17.6433 25.9664 17.4488C26.2956 16.994 26.4349 16.429 26.3548 15.8734C26.289 15.4449 26.0853 15.0496 25.7745 14.7473C25.1848 14.2467 24.4811 13.8987 23.7253 13.7338C23.6114 13.702 23.2361 13.5991 23.2031 13.589C23.2005 13.5676 23.1757 12.36 23.1531 11.8416C23.1433 11.3217 23.0658 10.8054 22.9226 10.3056C22.7446 9.5883 22.3765 8.93226 21.8572 8.40645C23.1575 7.06052 23.9692 5.57792 23.9672 4.30604C23.9635 1.86001 20.9552 1.11982 17.248 2.65276C17.2439 2.65448 16.468 2.98295 16.4625 2.98577C16.459 2.98233 15.0424 1.59453 15.0211 1.57587C10.7945 -2.10548 -2.42103 12.5626 1.80423 16.125L2.72761 16.9061C2.47844 17.5738 2.39047 18.2909 2.47085 18.999C2.59602 20.0292 3.10525 20.9742 3.89682 21.6453C4.66515 22.3426 5.65781 22.7417 6.69501 22.7703C8.33924 26.5539 12.096 28.8749 16.5009 29.0056C21.226 29.1457 25.1924 26.9318 26.8544 22.9548ZM27.8242 18.4771C28.229 18.9995 28.4373 19.6476 28.4126 20.308C28.3701 21.3381 28.1547 22.3537 27.7754 23.3123L27.7665 23.3348C26.909 25.3966 25.4121 27.1285 23.4961 28.2752C21.5018 29.4351 19.2297 30.0309 16.9229 29.9988H16.9224C16.7731 29.9988 16.6215 29.9964 16.4716 29.992C14.1949 29.9444 11.9725 29.2884 10.0349 28.092C8.32934 27.0233 6.94915 25.5077 6.04412 23.7099C5.00144 23.548 4.028 23.0875 3.24151 22.384C2.26365 21.5486 1.63724 20.3749 1.48758 19.0975C1.42088 18.4768 1.45686 17.8494 1.59408 17.2405L1.1654 16.878C0.818416 16.5783 0.536435 16.2108 0.336813 15.7981C0.137192 15.3853 0.0241542 14.9361 0.00465775 14.478C-0.030514 13.5272 0.133818 12.5795 0.487074 11.696C1.36705 9.29361 3.39139 6.43291 5.90257 4.04349C7.02319 2.95607 8.2663 2.00246 9.60693 1.20183C10.7251 0.486663 12.0093 0.0730358 13.3347 0.00117296C14.1895 -0.0211214 15.0221 0.275067 15.6707 0.832217C15.7077 0.864516 16.2627 1.40727 16.6836 1.81959C16.7893 1.77502 16.8653 1.74296 16.8675 1.74211C18.1127 1.19971 19.451 0.902726 20.8088 0.867458C23.3246 0.867458 24.9523 2.21658 24.9555 4.30455C24.9574 5.59289 24.3249 7.03716 23.1588 8.43529C23.476 8.92585 23.716 9.46224 23.8704 10.0257C24.036 10.6025 24.1267 11.1982 24.1403 11.7982C24.1516 12.0563 24.1632 12.4705 24.1725 12.8361C25.0328 13.0538 25.8279 13.476 26.4901 14.0668C26.9391 14.5122 27.2335 15.0898 27.3303 15.7148C27.4275 16.3317 27.3322 16.9636 27.0573 17.5244C27.0818 17.5947 27.1072 17.6709 27.1325 17.7517C27.1546 17.8222 27.1753 17.8901 27.1948 17.9546C27.4369 18.0856 27.6508 18.2632 27.8242 18.4771H27.8242Z" fill="#3A3C5B"/>
<path d="M24.8284 17.2559C24.9886 17.1053 25.1136 16.9212 25.1944 16.7166C25.2752 16.5121 25.3097 16.2922 25.2956 16.0727C25.2636 15.8515 25.1604 15.6468 25.0016 15.4895C24.5359 15.1028 23.9817 14.8375 23.3885 14.717C23.1175 14.6401 22.9337 14.5909 22.7356 14.525C22.3834 14.4078 22.2094 14.3134 22.17 13.6438C22.1527 13.351 22.1022 12.3309 22.084 11.9094C22.0519 11.1708 21.9639 10.1612 21.3444 9.74433C21.1868 9.63979 21.0035 9.58058 20.8146 9.57316C20.7088 9.56665 20.6027 9.57715 20.5002 9.60426C20.1858 9.67772 19.8996 9.84127 19.6766 10.0749C19.388 10.3384 19.0478 10.5391 18.6775 10.6641C18.3072 10.7891 17.9149 10.8357 17.5256 10.8009C17.092 10.7826 16.6325 10.7143 16.1057 10.6827C16.0032 10.6767 15.9004 10.6703 15.7978 10.6648C15.1171 10.6849 14.4663 10.949 13.9641 11.409C13.4619 11.8689 13.1418 12.494 13.0621 13.1703C12.7606 15.268 14.2631 16.3521 14.6969 16.9881C14.7639 17.0693 14.8055 17.1686 14.8162 17.2733C14.805 17.3895 14.7498 17.497 14.6618 17.5738L14.662 17.5744C14.0613 18.2506 13.6396 19.0665 13.4353 19.9476C13.231 20.8287 13.2507 21.7469 13.4926 22.6184C13.5499 22.8277 13.6234 23.0323 13.7124 23.2302C14.8088 25.8205 18.2099 27.0268 21.5327 25.9297C21.968 25.7859 22.3903 25.6056 22.7951 25.3904C23.5236 25.0263 24.1789 24.5312 24.7282 23.9299C25.5853 23.0607 26.1482 21.9446 26.3377 20.7387C26.4378 20.0711 26.2912 19.8127 26.0917 19.6885C25.9507 19.6092 25.7874 19.5791 25.6275 19.6028C25.5429 19.0788 25.3945 18.567 25.1854 18.0791L24.8284 17.2559Z" fill="white"/>
<path d="M19.3839 7.25199C19.4375 7.26429 19.4716 7.17168 19.4236 7.14479C18.6298 6.73343 17.7542 6.5043 16.8607 6.47408C16.8521 6.47395 16.8437 6.47145 16.8364 6.46685C16.8292 6.46226 16.8233 6.45574 16.8195 6.44803C16.8157 6.44032 16.8142 6.43172 16.815 6.42316C16.8157 6.41461 16.8189 6.40644 16.824 6.39955C16.9629 6.218 17.1251 6.05551 17.3063 5.91624C17.3144 5.90994 17.3203 5.90121 17.3231 5.89132C17.3259 5.88143 17.3255 5.8709 17.3219 5.86128C17.3183 5.85166 17.3117 5.84345 17.303 5.83785C17.2944 5.83225 17.2842 5.82956 17.274 5.83016C16.1799 5.93763 15.1281 6.30843 14.2085 6.91087C14.2006 6.91616 14.1914 6.91898 14.1819 6.91896C14.1725 6.91893 14.1632 6.91607 14.1554 6.91074C14.1476 6.90541 14.1416 6.89786 14.1381 6.88906C14.1346 6.88026 14.1339 6.87062 14.1359 6.86139C14.21 6.58515 14.319 6.3195 14.4603 6.07085C14.465 6.06231 14.4668 6.05251 14.4654 6.04288C14.4641 6.03325 14.4597 6.0243 14.4529 6.01736C14.4461 6.01041 14.4372 6.00583 14.4276 6.0043C14.418 6.00277 14.4082 6.00436 14.3996 6.00884C13.0716 6.73819 11.8881 7.70396 10.9072 8.85861C10.8996 8.8674 10.8954 8.8787 10.8955 8.89036C10.8956 8.90202 10.9 8.91323 10.9079 8.92185C10.9157 8.93048 10.9265 8.93592 10.9381 8.93714C10.9497 8.93836 10.9613 8.93528 10.9708 8.92847C12.1075 8.13417 13.3881 7.56895 14.7409 7.26438C16.2681 6.91211 17.8549 6.90787 19.3839 7.25198" fill="white"/>
<path d="M15.4726 3.50456C15.4726 3.50456 14.3222 2.17275 13.975 2.07452C11.8385 1.49801 7.22341 4.67623 4.27668 8.87526C3.08436 10.5742 1.37753 13.5829 2.19369 15.1303C2.48378 15.4778 2.81079 15.7926 3.16896 16.0693C3.7158 15.3029 4.5388 14.7785 5.46457 14.6069C6.62643 11.3587 8.66593 8.49614 11.3565 6.33714C12.6477 5.28047 14.0244 4.33301 15.4726 3.50456Z" fill="white"/>
<path d="M7.93908 19.8312C7.95565 19.8512 7.96576 19.8758 7.96808 19.9017C7.97039 19.9277 7.96481 19.9537 7.95205 19.9764C7.89004 20.077 7.80114 20.1583 7.69539 20.2112C7.58963 20.264 7.47122 20.2862 7.3535 20.2754C7.14372 20.2528 6.95033 20.1514 6.81243 19.9917C6.67454 19.8319 6.60241 19.6259 6.61063 19.415C6.60707 19.1277 6.65953 18.8424 6.76508 18.5751C6.8317 18.4077 6.83865 18.2224 6.78476 18.0504C6.73087 17.8784 6.61943 17.7302 6.46916 17.6307C6.38022 17.5718 6.2804 17.5314 6.17557 17.5118C6.07075 17.4921 5.96306 17.4937 5.85886 17.5164C5.75677 17.5379 5.66 17.5796 5.57425 17.639C5.48851 17.6984 5.41551 17.7744 5.35955 17.8624C5.2804 17.9979 5.21886 18.143 5.17641 18.2941C5.16822 18.3207 5.16162 18.3416 5.15661 18.355C5.08707 18.5426 4.97621 18.5973 4.9011 18.5872C4.86559 18.5823 4.81676 18.5586 4.78546 18.4727C4.74617 18.2246 4.764 17.9707 4.83759 17.7304C4.91117 17.4902 5.03857 17.2699 5.21011 17.0863C5.35417 16.9316 5.53298 16.8134 5.73177 16.7415C5.93055 16.6696 6.14359 16.6461 6.35327 16.6729C6.5754 16.7034 6.7865 16.7885 6.96765 16.9207C7.1488 17.0528 7.29436 17.2278 7.39128 17.43C7.48944 17.6785 7.52905 17.9463 7.50704 18.2125C7.48503 18.4788 7.402 18.7364 7.26437 18.9655C7.24696 19.0044 7.23102 19.0401 7.21759 19.0724C7.1681 19.1619 7.14093 19.2619 7.13837 19.3641C7.13582 19.4663 7.15796 19.5676 7.20291 19.6594C7.24092 19.7142 7.29191 19.7586 7.35132 19.7889C7.41073 19.8191 7.4767 19.8341 7.54333 19.8325C7.60615 19.8316 7.66859 19.8228 7.7292 19.8062C7.80807 19.7878 7.88957 19.7688 7.93908 19.8312ZM27.3821 20.3165C27.338 21.2219 27.1467 22.114 26.8157 22.9579C25.1646 26.9265 21.2242 29.1358 16.53 28.996C12.154 28.8656 8.42177 26.5494 6.78829 22.7738C5.75708 22.7449 4.77057 22.3465 4.00856 21.6511C3.22139 20.98 2.71563 20.0373 2.59187 19.0103C2.512 18.3038 2.59938 17.5884 2.84696 16.9219L1.92959 16.1424C-2.26795 12.5874 10.8608 -2.04983 15.06 1.62386C15.0812 1.64236 16.4884 3.02737 16.4919 3.03078C16.4975 3.02793 17.2683 2.70006 17.2723 2.69846C20.9552 1.16871 23.9438 1.90733 23.9476 4.3481C23.9495 5.61745 23.1431 7.09698 21.8514 8.43997C22.3677 8.96539 22.7332 9.61991 22.9097 10.335C23.0521 10.8339 23.1291 11.3492 23.1387 11.868C23.1611 12.3853 23.1859 13.5903 23.1884 13.6118C23.2212 13.6217 23.5941 13.7244 23.7071 13.7562C24.4585 13.921 25.1578 14.2684 25.743 14.7677C26.052 15.0697 26.2543 15.4641 26.3195 15.8912C26.3991 16.4455 26.2608 17.009 25.9337 17.4634C26.0188 17.6575 26.0927 17.8564 26.1549 18.059C26.2636 18.4086 26.3427 18.6987 26.3549 18.7417C26.7545 18.7417 27.3821 19.2031 27.3821 20.3165ZM8.83208 18.1388C8.54663 16.2857 7.29681 15.6325 6.44877 15.586C6.2359 15.5747 6.02245 15.5899 5.81333 15.6313C4.2997 15.9376 3.44483 17.2291 3.61304 18.9072C3.73555 19.66 4.10831 20.3495 4.67108 20.8642C5.23384 21.3789 5.95374 21.6888 6.71442 21.7439C6.85999 21.7478 7.0056 21.7375 7.1492 21.7133C8.68332 21.4509 9.08498 19.78 8.83208 18.1388ZM11.4192 6.3749C12.7014 5.32081 14.0692 4.37533 15.5083 3.54827C15.5083 3.54827 14.3656 2.21932 14.0205 2.12138C11.8981 1.54589 7.31309 4.7175 4.38574 8.90767C3.20125 10.6031 1.50563 13.6055 2.31634 15.1496C2.60435 15.4962 2.92923 15.8104 3.28525 16.0867C3.82727 15.3227 4.6451 14.7994 5.5659 14.6274C6.7179 11.389 8.74381 8.53273 11.4192 6.3749ZM16.0322 21.0399C16.0884 21.2862 16.2102 21.5127 16.3845 21.6955C16.5589 21.8783 16.7794 22.0107 17.0227 22.0785C17.2759 22.1729 17.5371 22.244 17.8031 22.2911C21.1604 22.8703 24.2991 20.9449 25.0059 20.4599C25.0589 20.4235 25.0939 20.459 25.0514 20.5233C25.0301 20.5575 25.007 20.5906 24.9822 20.6223C24.1173 21.7413 21.7921 23.0371 18.767 23.0367C17.4477 23.0364 16.129 22.5702 15.6448 21.8539C14.8936 20.7423 15.6076 19.1198 16.8593 19.2889C16.8607 19.2891 17.2876 19.3376 17.4075 19.351C19.3532 19.5381 21.3144 19.2233 23.1037 18.4367C24.8114 17.6416 25.4565 16.7665 25.3598 16.0582C25.3274 15.8382 25.224 15.6348 25.0653 15.479C24.5983 15.0946 24.0438 14.8312 23.4508 14.712C23.1796 14.6356 22.9956 14.5869 22.7973 14.5213C22.4448 14.4049 22.2706 14.3112 22.2311 13.6463C22.2139 13.3555 22.1634 12.3426 22.145 11.9239C22.1128 11.1904 22.025 10.1879 21.4047 9.77393C21.2467 9.67 21.0634 9.61122 20.8745 9.60395C20.7686 9.5975 20.6623 9.60795 20.5597 9.63489C20.2455 9.7076 19.9592 9.86996 19.7354 10.1023C19.4456 10.3643 19.1047 10.5635 18.7341 10.6876C18.3636 10.8117 17.9715 10.8578 17.5823 10.8232C17.1483 10.805 16.6884 10.7372 16.1612 10.7058C16.0586 10.6998 15.9556 10.6934 15.8528 10.6881C15.174 10.7059 14.5242 10.9669 14.0216 11.4236C13.5191 11.8802 13.1972 12.5021 13.1146 13.1761C12.8128 15.2592 14.3168 16.3357 14.751 16.9673C14.8181 17.0478 14.8597 17.1464 14.8705 17.2505C14.859 17.3661 14.8037 17.4729 14.7159 17.5488V17.5495C14.1153 18.2186 13.6932 19.0284 13.4886 19.9039C13.2841 20.7794 13.3036 21.6924 13.5455 22.5583C13.6029 22.7663 13.6765 22.9694 13.7655 23.1659C14.863 25.7382 18.2673 26.936 21.5933 25.8464C22.0287 25.7038 22.4514 25.5248 22.8568 25.3112C23.5852 24.9502 24.241 24.4585 24.7918 23.8607C25.6484 22.9998 26.2121 21.891 26.4028 20.6917C26.5029 20.0287 26.3563 19.7722 26.1565 19.6488C26.0152 19.5701 25.8519 19.5402 25.6919 19.5637C25.6072 19.043 25.4586 18.5348 25.2495 18.0505C24.2996 18.7672 23.2258 19.3029 22.0819 19.6307C20.7055 20.0196 19.2737 20.1749 17.846 20.0901C16.9275 20.0157 16.3198 19.7467 16.0913 20.4917C17.4807 20.9563 18.9558 21.1068 20.4104 20.9324C20.4206 20.9313 20.4309 20.9323 20.4408 20.9353C20.4507 20.9382 20.4598 20.9431 20.4678 20.9496C20.4758 20.9561 20.4823 20.9642 20.4872 20.9732C20.4921 20.9823 20.4951 20.9923 20.4961 21.0025C20.4976 21.0197 20.4938 21.0369 20.4851 21.0519C20.4764 21.0668 20.4633 21.0787 20.4476 21.0858C20.4476 21.0858 18.7416 21.8803 16.0322 21.0399ZM11.0358 8.96019C12.1642 8.168 13.4365 7.60394 14.7812 7.29972C16.2982 6.94817 17.875 6.94392 19.3939 7.28727C19.447 7.29949 19.4809 7.20713 19.4334 7.18043C18.6452 6.77005 17.7752 6.54131 16.8871 6.51099C16.8785 6.51083 16.8702 6.50832 16.863 6.50373C16.8557 6.49914 16.8499 6.49264 16.8462 6.48496C16.8424 6.47727 16.8408 6.4687 16.8416 6.46018C16.8424 6.45166 16.8455 6.44352 16.8507 6.43667C16.9886 6.2556 17.1497 6.09344 17.3299 5.95434C17.338 5.94804 17.3439 5.93933 17.3466 5.92947C17.3494 5.91961 17.349 5.90913 17.3454 5.89954C17.3418 5.88995 17.3352 5.88175 17.3267 5.87615C17.3181 5.87055 17.3079 5.86782 17.2977 5.86838C16.2102 5.9759 15.1651 6.34601 14.2522 6.94688C14.2444 6.95216 14.2352 6.95498 14.2258 6.95495C14.2164 6.95493 14.2072 6.95207 14.1994 6.94675C14.1916 6.94143 14.1857 6.93389 14.1822 6.92512C14.1788 6.91635 14.1781 6.90675 14.1802 6.89756C14.2537 6.62201 14.362 6.35694 14.5024 6.10872C14.5071 6.10023 14.5089 6.09047 14.5076 6.08087C14.5063 6.07128 14.5019 6.06235 14.4952 6.05541C14.4884 6.04847 14.4796 6.04388 14.47 6.04232C14.4605 6.04076 14.4507 6.0423 14.4421 6.04672C13.1219 6.77538 11.9461 7.73921 10.9726 8.8907C10.965 8.89943 10.9608 8.91067 10.961 8.92226C10.9611 8.93386 10.9654 8.945 10.9732 8.95359C10.981 8.96217 10.9917 8.96758 11.0033 8.9688C11.0148 8.97001 11.0264 8.96695 11.0358 8.96019ZM19.8769 16.0312C19.9688 16.0894 20.0789 16.1117 20.1862 16.0938C20.2935 16.076 20.3905 16.0193 20.4586 15.9345C20.5433 15.7706 20.4203 15.5483 20.1838 15.4379C20.0919 15.3797 19.9818 15.3575 19.8745 15.3753C19.7672 15.3932 19.6703 15.45 19.6022 15.5348C19.5174 15.6986 19.6405 15.9209 19.8769 16.0312ZM20.6023 13.3733C20.659 13.6684 20.7814 13.947 20.9604 14.1883C21.1453 14.1656 21.3324 14.1656 21.5173 14.1883C21.6255 13.8644 21.6349 13.5157 21.5445 13.1863C21.4109 12.5787 21.23 12.211 20.8562 12.2682C20.4825 12.3254 20.4687 12.7657 20.6023 13.3733ZM21.3974 14.7691C21.3032 14.742 21.2028 14.7452 21.1104 14.7781C21.0181 14.8111 20.9383 14.8721 20.8824 14.9527C20.8265 15.0333 20.7973 15.1293 20.7988 15.2274C20.8003 15.3254 20.8325 15.4206 20.8909 15.4994C20.9493 15.5782 21.0309 15.6367 21.1242 15.6668C21.2176 15.6968 21.318 15.6969 21.4114 15.6669C21.5047 15.637 21.5864 15.5785 21.6448 15.4998C21.7033 15.421 21.7356 15.3259 21.7372 15.2279C21.7507 15.1223 21.7229 15.0156 21.6596 14.9301C21.5963 14.8446 21.5023 14.7869 21.3974 14.7691Z" fill="#3A3C5B"/>
<path d="M15.1895 14.7151C15.1298 14.7067 15.1044 14.6812 15.097 14.6474C15.0738 14.5426 15.235 14.3701 15.405 14.2456C15.653 14.0643 15.9435 13.9498 16.2485 13.9132C16.5536 13.8765 16.8629 13.919 17.1468 14.0365C17.4121 14.1459 17.6402 14.3295 17.8037 14.5652C17.8645 14.6643 17.8762 14.7412 17.837 14.7815C17.7758 14.846 17.6197 14.7721 17.3656 14.6606C17.0604 14.5109 16.7231 14.4383 16.3833 14.4491C15.9807 14.5153 15.5821 14.6041 15.1895 14.7151ZM17.7219 15.2365C17.6121 15.1211 17.4754 15.0347 17.324 14.9851C17.1727 14.9355 17.0114 14.9242 16.8546 14.9522C16.6233 14.9768 16.4043 15.0681 16.224 15.215C16.14 15.2753 16.0823 15.3654 16.0627 15.467C16.0622 15.4782 16.0643 15.4895 16.0686 15.4999C16.073 15.5103 16.0796 15.5197 16.088 15.5273C16.1029 15.5408 16.1223 15.5482 16.1425 15.548C16.2256 15.5357 16.307 15.5132 16.3846 15.4808C16.7243 15.3528 17.0912 15.3147 17.45 15.3702C17.6162 15.3889 17.6948 15.3993 17.7313 15.3422C17.7406 15.3257 17.7447 15.3068 17.743 15.2879C17.7414 15.269 17.734 15.2511 17.7219 15.2365Z" fill="#3A3C5B"/>
<path d="M46.0134 13.374C44.1877 13.374 43.2863 14.8162 42.8701 15.747C42.6406 16.2649 42.5751 16.6746 42.3882 16.6746C42.1195 16.6746 42.3128 16.3206 42.0965 15.5274C41.8114 14.4851 40.9526 13.3806 39.1302 13.3806C37.216 13.3806 36.3933 15.0063 36.0065 15.9011C35.7377 16.5107 35.7377 16.6812 35.5345 16.6812C35.2395 16.6812 35.4853 16.1961 35.6164 15.6258C35.777 14.9735 35.8 14.2951 35.682 13.633H32.6436V25.1116H36.7833V19.4084C36.7833 18.2809 37.2553 16.8551 38.0583 16.8551C38.9925 16.8551 39.1727 17.5729 39.1727 18.9004V25.1247H43.3353V19.4084C43.3353 18.4055 43.7418 16.8551 44.6136 16.8551C45.5576 16.8551 45.7215 17.8646 45.7215 18.9004V25.1214H49.812V18.3661C49.8153 15.3704 48.7632 13.3743 46.0132 13.3743L46.0134 13.374Z" fill="#3A3C5B"/>
<path d="M116.387 13.374C114.565 13.374 113.66 14.8162 113.247 15.747C113.015 16.2649 112.952 16.6746 112.762 16.6746C112.497 16.6746 112.677 16.2223 112.474 15.5274C112.169 14.4917 111.412 13.3806 109.507 13.3806C107.6 13.3806 106.771 15.0063 106.38 15.9011C106.115 16.5107 106.115 16.6812 105.912 16.6812C105.614 16.6812 105.859 16.1961 105.994 15.6258C106.154 14.9735 106.174 14.2951 106.056 13.633H103.018V25.1116H107.161V19.4084C107.161 18.2809 107.629 16.8551 108.432 16.8551C109.36 16.8551 109.55 17.5729 109.55 18.9004V25.1247H113.709V19.4084C113.709 18.4055 114.119 16.8551 114.991 16.8551C115.925 16.8551 116.099 17.8646 116.099 18.9004V25.1214H120.186V18.3661C120.189 15.3704 119.14 13.3743 116.387 13.3743L116.387 13.374Z" fill="#3A3C5B"/>
<path d="M56.8962 13.3786C55.0148 13.3688 53.1531 13.7686 51.4388 14.5487V18.0001C51.4388 18.0001 53.9561 16.5448 55.9981 16.5448C57.6271 16.5448 57.8271 17.4298 57.755 18.1574C57.755 18.1574 57.2863 18.0329 55.8507 18.0329C52.4714 18.0329 50.7637 19.5766 50.7637 22.0513C50.7637 24.3981 52.6812 25.3781 54.297 25.3781C56.6537 25.3781 57.6894 23.7885 58.0106 23.0313C58.2303 22.5069 58.2696 22.1561 58.4695 22.1561C58.6957 22.1561 58.617 22.4085 58.6039 22.9297C58.5843 23.8441 58.6269 24.5325 58.7678 25.1159H61.898V19.4717C61.898 15.945 60.659 13.3785 56.8963 13.3785L56.8962 13.3786ZM55.8834 22.4348C54.8902 22.6643 54.3789 22.3561 54.3789 21.6973C54.3789 20.7927 55.3131 20.4289 56.6372 20.4289C57.2239 20.4289 57.7746 20.4813 57.7746 20.4813C57.7779 20.8681 56.9421 22.189 55.8834 22.4348V22.4348Z" fill="#3A3C5B"/>
<path d="M68.7285 10.1631H72.8781V25.1189H68.7285V10.1631Z" fill="#3A3C5B"/>
<path d="M77.4394 19.3783C77.4394 18.3458 78.3932 17.4084 80.1436 17.4084C82.0544 17.4084 83.5884 18.3327 83.9326 18.5392V14.5471C83.9326 14.5471 82.7198 13.377 79.7404 13.377C76.5971 13.377 73.9814 15.2255 73.9814 19.2014C73.9814 23.1772 76.3545 25.3765 79.7273 25.3765C82.3625 25.3765 83.9358 23.9212 83.9358 23.9212V20.1355C83.4376 20.4141 82.0544 21.381 80.1599 21.381C78.1605 21.381 77.4394 20.4534 77.4394 19.3784V19.3783Z" fill="#3A3C5B"/>
<path d="M92.331 13.3778C89.9251 13.3778 89.0172 15.6591 88.8336 16.0622C88.6468 16.4653 88.555 16.6882 88.4043 16.6817C88.1388 16.6751 88.3256 16.1966 88.4305 15.8852C88.8303 14.5872 89.0303 13.2369 89.0303 11.8766C89.0303 10.5951 88.8566 10.1689 88.8566 10.1689H85.2773V25.118H89.4204V19.4083C89.4204 18.4775 89.7907 16.855 90.8363 16.855C91.7016 16.855 91.9704 17.5007 91.9704 18.7987V25.1213H96.1135V19.0445C96.1233 16.0946 95.6349 13.3774 92.331 13.3774L92.331 13.3778Z" fill="#3A3C5B"/>
<path d="M97.4747 13.6538V25.119H101.618V13.6538C101.618 13.6538 100.92 14.057 99.5462 14.057C98.1761 14.057 97.4746 13.6538 97.4746 13.6538H97.4747Z" fill="#3A3C5B"/>
<path d="M102.073 11.7139C102.073 10.7928 100.936 10.0488 99.533 10.0488C98.1334 10.0488 96.9961 10.7929 96.9961 11.7139C96.9961 12.6317 98.1335 13.379 99.533 13.379C100.936 13.379 102.073 12.6317 102.073 11.7139Z" fill="#3A3C5B"/>
<path d="M63.2412 13.6538V25.119H67.3842V13.6538C67.3842 13.6538 66.6861 14.057 65.316 14.057C63.946 14.057 63.2412 13.6538 63.2412 13.6538Z" fill="#3A3C5B"/>
<path d="M67.8394 11.7139C67.8394 10.7928 66.7021 10.0488 65.3025 10.0488C63.8997 10.0488 62.7656 10.7929 62.7656 11.7139C62.7656 12.6317 63.8997 13.379 65.3025 13.379C66.7021 13.379 67.8394 12.6317 67.8394 11.7139Z" fill="#3A3C5B"/>
<path d="M128.428 13.374C126.298 13.374 125.321 14.9867 124.898 15.8945C124.616 16.4976 124.629 16.6746 124.426 16.6746C124.131 16.6746 124.377 16.1895 124.508 15.6192C124.669 14.9703 124.688 14.2918 124.57 13.633H121.535V28.2875H125.678V23.6398C126.17 24.4789 127.078 25.3736 128.484 25.3736C131.483 25.3736 132.991 22.8203 132.991 19.3788C132.987 15.4752 131.182 13.3742 128.428 13.3742L128.428 13.374ZM127.291 22.6534C126.34 22.6534 125.642 21.444 125.642 19.7527C125.642 18.1106 126.36 16.852 127.258 16.852C128.412 16.852 128.903 17.9172 128.903 19.7527C128.903 21.6636 128.451 22.6534 127.291 22.6534Z" fill="#3A3C5B"/>
<path d="M44.1057 3.52846C44.5941 3.53174 44.9907 3.13186 44.994 2.64348C44.994 2.15183 44.5974 1.75195 44.109 1.75195C43.6206 1.75195 43.224 2.14855 43.224 2.64021C43.224 3.13186 43.6173 3.52846 44.1057 3.52846ZM37.0161 5.2427C37.275 4.656 37.9699 4.12832 38.8319 4.12832C40.3561 4.12832 40.9887 5.30496 40.9887 6.5046V10.1789H39.5268V6.92087C39.5268 6.22273 39.3695 5.35086 38.432 5.35086C37.4913 5.35086 37.0652 6.15717 37.0652 6.94378V10.1789H35.6034V4.29874H36.9931V5.23943L37.0161 5.2427ZM34.0989 10.1789H32.6436V4.29874H34.0989V10.1789ZM60.1208 2.64021C60.1208 3.13186 59.7274 3.52846 59.2391 3.52846C58.7507 3.52846 58.3573 3.13186 58.3573 2.64021C58.3573 2.15183 58.7507 1.75195 59.2391 1.75195C59.7274 1.75195 60.1208 2.15183 60.1208 2.64021ZM41.7363 5.59663H43.3751V10.1788H44.8402V5.59663H46.4791V4.29538H41.7363V5.59663ZM50.0551 9.12665C50.9827 9.12665 51.4219 8.32034 51.4219 7.53373V4.29865H52.8838V10.1788H51.4941V9.23808H51.4711C51.2187 9.82806 50.5239 10.3525 49.6553 10.3525C48.1344 10.3525 47.4985 9.17582 47.4985 7.97618V4.29865H48.9604V7.55664C48.9604 8.26134 49.1177 9.12665 50.0552 9.12665H50.0551ZM56.8727 4.29211V5.59336H58.5116V10.1788H59.9734V5.59663H61.6123V4.29538L56.8727 4.29211ZM55.8468 10.1722H54.3816V4.29865H55.8435L55.8468 10.1722Z" fill="#3A3C5B"/>
</svg>
