<svg width="149" height="30" viewBox="0 0 149 30" fill="none" xmlns="http://www.w3.org/2000/svg">
<path d="M4.88041 19.7832C4.88041 21.507 5.25939 22.832 5.75421 23.6327C6.40295 24.6815 7.37108 25.1265 8.35743 25.1265C9.63007 25.1265 10.7935 24.8105 13.0376 21.7088C14.8348 19.2224 16.9532 15.7336 18.3781 13.545L20.791 9.83785C22.4674 7.26383 24.407 4.40197 26.6329 2.46319C28.4483 0.880067 30.4078 0 32.3805 0C35.6903 0 38.8447 1.91728 41.2575 5.51363C43.8988 9.45241 45.1814 14.4135 45.1814 19.5334C45.1814 22.5773 44.5807 24.8138 43.5596 26.5806C42.5732 28.2894 40.6502 29.9966 37.4148 29.9966V25.1248C40.1852 25.1248 40.8753 22.5806 40.8753 19.6691C40.8753 15.5202 39.9071 10.9148 37.7756 7.62446C36.263 5.29031 34.3019 3.86434 32.1438 3.86434C29.8104 3.86434 27.9337 5.62281 25.8236 8.75928C24.7016 10.4251 23.5497 12.4565 22.2572 14.7477L20.834 17.2688C17.9743 22.3374 17.2494 23.4904 15.8212 25.3961C13.3156 28.7311 11.1758 29.9966 8.35908 29.9966C5.01777 29.9966 2.90441 28.5508 1.59536 26.3705C0.524615 24.5955 0 22.2646 0 19.6079L4.88041 19.7832Z" fill="#3A3C5B"/>
<path d="M3.84668 5.85918C6.08415 2.41171 9.31293 0.00146484 13.0167 0.00146484C15.1615 0.00146484 17.293 0.636702 19.5189 2.45307C21.955 4.43983 24.5499 7.71029 27.7886 13.1032L28.9504 15.0386C31.7539 19.7069 33.3476 22.1073 34.2809 23.2404C35.4808 24.6945 36.3215 25.1279 37.4137 25.1279C40.1841 25.1279 40.8742 22.5837 40.8742 19.6722L45.1787 19.5366C45.1787 22.5804 44.578 24.8169 43.5569 26.5837C42.5705 28.2925 40.6475 29.9997 37.4121 29.9997C35.4013 29.9997 33.619 29.563 31.6496 27.7053C30.1353 26.2793 28.3646 23.7466 27.0025 21.4687L22.9513 14.7028C20.919 11.3066 19.0539 8.77563 17.9732 7.62923C16.8114 6.39681 15.3203 4.90799 12.9372 4.90799C11.0092 4.90799 9.37251 6.25951 8.00222 8.32898L3.84668 5.85918Z" fill="#3A3C5B"/>
<path d="M12.9383 4.90486C11.0103 4.90486 9.37356 6.25639 8.00327 8.32586C6.06534 11.2489 4.88041 15.6013 4.88041 19.7832C4.88041 21.507 5.25939 22.832 5.75421 23.6327L1.5937 26.3721C0.524615 24.5954 0 22.2646 0 19.6079C0 14.7791 1.3256 9.74521 3.84773 5.85771C6.0852 2.41025 9.31398 0 13.0177 0L12.9383 4.90486Z" fill="#3A3C5B"/>
<path d="M54.6667 0.949219H60.3117L69.9103 18.3057L79.5106 0.949219H85.0331V29.4702H80.4274V7.6109L72.0088 22.7473H67.6877L59.2707 7.6109V29.4686H54.665V0.949219H54.6667ZM99.4625 11.5828C96.1592 11.5828 94.1717 14.0675 93.695 17.1444H104.904C104.672 13.9748 102.844 11.5828 99.4625 11.5828ZM89.1291 18.8962C89.1291 12.4231 93.3144 7.71181 99.5419 7.71181C105.668 7.71181 109.326 12.3636 109.326 19.242V20.5058H93.695C94.2495 23.8524 96.472 26.1071 100.053 26.1071C102.911 26.1071 104.697 25.2353 106.392 23.6406L108.838 26.6348C106.532 28.7539 103.601 29.9748 99.8895 29.9748C93.1473 29.9781 89.1291 25.0633 89.1291 18.8962ZM114.91 11.9914H110.671V8.22297H114.91V1.98975H119.353V8.22297H125.793V11.9914H119.353V21.5447C119.353 24.8069 120.396 25.9648 122.961 25.9648C124.131 25.9648 124.803 25.8639 125.794 25.7002V29.4289C124.56 29.7779 123.381 29.9384 122.105 29.9384C117.309 29.9384 114.911 27.318 114.911 22.0757L114.91 11.9914ZM144.502 15.6572C143.61 13.4057 141.619 11.7465 138.693 11.7465C134.891 11.7465 132.457 14.443 132.457 18.835C132.457 23.1179 134.698 25.945 138.511 25.945C141.508 25.945 143.648 24.2014 144.502 22.0327V15.6572ZM148.945 29.4686H144.584V26.4942C143.365 28.2461 141.147 29.9781 137.554 29.9781C131.775 29.9781 127.914 25.1427 127.914 18.835C127.914 12.4678 131.869 7.71181 137.799 7.71181C140.732 7.71181 143.03 8.88302 144.584 10.9525V8.22297H148.945V29.4686Z" fill="#3A3C5B"/>
</svg>
