<svg width="130" height="45" viewBox="0 0 130 45" fill="none" xmlns="http://www.w3.org/2000/svg">
<path d="M2.70751 1.94128L27.6076 0.1023C30.6662 -0.160196 31.4522 0.0168015 33.3752 1.41478L41.3237 7.01422C42.6347 7.9772 43.0712 8.2397 43.0712 9.28819V39.9973C43.0712 41.9218 42.3722 43.0603 39.9257 43.2343L11.0101 44.9848C9.17405 45.0718 8.29954 44.8093 7.33804 43.5838L1.48501 35.9729C0.435002 34.5719 0 33.5234 0 32.2979V5.00124C0 3.42776 0.699003 2.11528 2.70751 1.94128Z" fill="white"/>
<path fill-rule="evenodd" clip-rule="evenodd" d="M27.6076 0.1023L2.70751 1.94128C0.699003 2.11528 0 3.42776 0 5.00124V32.2979C0 33.5234 0.435002 34.5719 1.48501 35.9729L7.33804 43.5838C8.29954 44.8093 9.17405 45.0718 11.0101 44.9848L39.9257 43.2343C42.3707 43.0603 43.0712 41.9218 43.0712 39.9973V9.28819C43.0712 8.2937 42.6782 8.0072 41.5217 7.15821C41.4551 7.11027 41.3887 7.06227 41.3222 7.01421L33.3752 1.41478C31.4522 0.0168016 30.6662 -0.160196 27.6076 0.1023ZM11.6641 8.78569C9.30305 8.94469 8.76754 8.98069 7.42654 7.8902L4.01702 5.17824C3.67052 4.82724 3.84452 4.38925 4.71752 4.30225L28.6546 2.55327C30.6647 2.37778 31.7117 3.07827 32.4977 3.69026L36.6032 6.66472C36.7787 6.75322 37.2152 7.27671 36.6902 7.27671L11.9701 8.76469L11.6641 8.78569ZM8.91154 39.7348V13.6651C8.91154 12.5266 9.26105 12.0016 10.3081 11.9132L38.7002 10.2512C39.6632 10.1642 40.0982 10.7762 40.0982 11.9132V37.8089C40.0982 38.9474 39.9227 39.9103 38.3507 39.9973L11.1811 41.5723C9.60905 41.6593 8.91154 41.1358 8.91154 39.7348ZM35.7317 15.0632C35.9057 15.8507 35.7317 16.6381 34.9442 16.7281L33.6347 16.9876V36.2354C32.4977 36.8474 31.4507 37.1969 30.5762 37.1969C29.1781 37.1969 28.8286 36.7589 27.7816 35.4479L19.2181 21.9751V35.0099L21.9271 35.6234C21.9271 35.6234 21.9271 37.1984 19.7416 37.1984L13.7161 37.5479C13.5406 37.1969 13.7161 36.3224 14.3266 36.1484L15.9001 35.7119V18.4771L13.7161 18.3001C13.5406 17.5126 13.9771 16.3757 15.2011 16.2872L21.6661 15.8522L30.5762 29.499V17.4256L28.3051 17.1646C28.1296 16.2002 28.8286 15.4997 29.7016 15.4142L35.7317 15.0632Z" fill="#3A3C5B"/>
<path d="M62.1486 31.8757V20.0108H62.3541L70.9101 31.8757H73.6042V14.4399H70.6086V26.2927H70.4031L61.8471 14.4399H59.1426V31.8742H62.1501L62.1486 31.8757ZM82.0702 32.1426C86.0227 32.1426 88.4272 29.5567 88.4272 25.2667C88.4272 20.9888 86.0107 18.3908 82.0702 18.3908C78.1432 18.3908 75.7147 21.0008 75.7147 25.2667C75.7147 29.5567 78.1072 32.1426 82.0702 32.1426ZM82.0702 29.6287C79.9807 29.6287 78.7852 28.0342 78.7852 25.2667C78.7852 22.5113 79.9807 20.9048 82.0702 20.9048C84.1492 20.9048 85.3447 22.5113 85.3447 25.2667C85.3447 28.0342 84.1612 29.6287 82.0702 29.6287ZM91.1647 15.4194V18.7418H89.0752V21.1343H91.1647V28.3477C91.1647 30.9097 92.3738 31.9371 95.4068 31.9371C95.9858 31.9371 96.5423 31.8771 96.9773 31.7917V29.4472C96.6143 29.4832 96.3848 29.5072 95.9618 29.5072C94.7063 29.5072 94.1498 28.9282 94.1498 27.6232V21.1343H96.9773V18.7418H94.1498V15.4179H91.1647V15.4194ZM98.7728 31.8757H101.758V18.6563H98.7728V31.8757ZM100.259 16.4708C101.249 16.4708 102.047 15.6714 102.047 14.6694C102.047 13.6659 101.251 12.856 100.259 12.856C99.2813 12.856 98.4713 13.6659 98.4713 14.6694C98.4713 15.6714 99.2813 16.4693 100.259 16.4693V16.4708ZM109.946 32.1426C113.897 32.1426 116.302 29.5567 116.302 25.2667C116.302 20.9888 113.885 18.3908 109.946 18.3908C106.018 18.3908 103.589 21.0008 103.589 25.2667C103.589 29.5567 105.982 32.1426 109.946 32.1426ZM109.946 29.6287C107.855 29.6287 106.658 28.0342 106.658 25.2667C106.658 22.5113 107.855 20.9048 109.946 20.9048C112.024 20.9048 113.221 22.5113 113.221 25.2667C113.221 28.0342 112.036 29.6287 109.946 29.6287ZM118.085 31.8757H121.082V24.1793C121.082 22.2338 122.207 21.0008 123.994 21.0008C125.819 21.0008 126.664 22.0163 126.664 24.0338V31.8757H129.662V23.3213C129.662 20.1668 128.054 18.3908 125.107 18.3908C123.136 18.3908 121.807 19.2968 121.178 20.7713H120.973V18.6563H118.085V31.8757Z" fill="#3A3C5B"/>
</svg>
