<svg width="184" height="45" viewBox="0 0 184 45" fill="none" xmlns="http://www.w3.org/2000/svg">
<path d="M37.9789 0H8.17267C3.65903 0 0 3.65921 0 8.17308V36.8269C0 41.3408 3.65903 45 8.17267 45H37.9789C42.4925 45 46.1515 41.3408 46.1515 36.8269V8.17308C46.1515 3.65921 42.4925 0 37.9789 0Z" fill="#3A3C5B"/>
<path d="M10.3887 31.5565V11.772C10.3887 11.6279 10.4506 11.5553 10.5745 11.5553C10.9043 11.5553 11.2055 11.5505 11.6598 11.5398C12.1136 11.5297 12.6038 11.5194 13.1304 11.5089C13.6568 11.4987 14.2141 11.4884 14.8023 11.4779C15.3905 11.4678 15.9735 11.4626 16.5515 11.4624C18.1198 11.4624 19.4408 11.6585 20.5143 12.0507C21.4827 12.3783 22.3659 12.9177 23.0996 13.6297C23.7214 14.2469 24.202 14.9916 24.5082 15.8125C24.7978 16.6114 24.9446 17.4551 24.9417 18.3049C24.9417 19.9565 24.5599 21.3188 23.7962 22.3918C23.0274 23.4693 21.9469 24.2851 20.7002 24.7294C19.3998 25.2147 17.9548 25.3792 16.3658 25.3792C15.9115 25.3792 15.5916 25.3741 15.406 25.3637C15.2202 25.3535 14.9416 25.3484 14.5701 25.3482V31.5255C14.5755 31.5634 14.572 31.602 14.5599 31.6382C14.5478 31.6745 14.5275 31.7075 14.5004 31.7345C14.4734 31.7615 14.4404 31.7819 14.4041 31.794C14.3679 31.8061 14.3293 31.8096 14.2914 31.8042H10.6054C10.4608 31.8042 10.3887 31.7219 10.3887 31.5565ZM14.5701 15.2707V21.7236C14.8381 21.7444 15.0857 21.7547 15.3131 21.7545H16.3348C17.0865 21.752 17.8333 21.6328 18.5484 21.4011C19.1618 21.2189 19.7099 20.8642 20.1274 20.3794C20.5298 19.9048 20.7311 19.2443 20.7311 18.3978C20.7475 17.7989 20.5916 17.2079 20.2821 16.6949C19.9568 16.1989 19.4865 15.8151 18.9354 15.5958C18.2157 15.3161 17.447 15.1844 16.6753 15.2088C16.1799 15.2088 15.7413 15.2139 15.3596 15.2242C14.9774 15.2349 14.7143 15.2504 14.5701 15.2707Z" fill="white"/>
<path d="M36.9132 20.5496C36.3313 20.2506 35.7116 20.0319 35.071 19.8994C34.3652 19.7374 33.6435 19.6543 32.9193 19.6516C32.5276 19.641 32.1364 19.688 31.7583 19.791C31.5176 19.8446 31.3037 19.9817 31.1545 20.178C31.0537 20.335 30.9999 20.5177 30.9998 20.7044C31.0054 20.8854 31.0707 21.0596 31.1855 21.1997C31.3664 21.4113 31.5873 21.5849 31.8357 21.7106C32.2771 21.9483 32.7319 22.1602 33.1979 22.3453C34.237 22.6931 35.2298 23.1662 36.1546 23.754C36.7845 24.1517 37.3059 24.6996 37.6717 25.3486C37.9792 25.9631 38.1333 26.643 38.1206 27.3301C38.1391 28.2374 37.8799 29.1287 37.3776 29.8845C36.8398 30.6516 36.0929 31.2481 35.2258 31.6028C34.2863 32.0155 33.1254 32.2219 31.7428 32.2221C30.8645 32.2309 29.9877 32.1479 29.1267 31.9743C28.4483 31.85 27.7879 31.642 27.1607 31.3551C27.093 31.3202 27.0367 31.2667 26.9983 31.2009C26.9599 31.1351 26.9411 31.0597 26.944 30.9836V27.6397C26.9403 27.607 26.9455 27.5739 26.9591 27.5439C26.9728 27.5139 26.9943 27.4881 27.0215 27.4694C27.048 27.4544 27.0786 27.4478 27.109 27.4506C27.1394 27.4534 27.1683 27.4653 27.1917 27.4849C27.9324 27.9217 28.7367 28.2403 29.5756 28.4292C30.315 28.6146 31.0735 28.7133 31.8357 28.7234C32.5579 28.7234 33.0894 28.6305 33.4301 28.4447C33.584 28.3743 33.7141 28.2608 33.8048 28.1179C33.8955 27.975 33.9428 27.8089 33.941 27.6397C33.941 27.3717 33.7862 27.1137 33.4766 26.8657C33.167 26.618 32.5375 26.3187 31.588 25.9678C30.6159 25.6294 29.6941 25.1607 28.848 24.5745C28.2428 24.1536 27.7445 23.597 27.3929 22.949C27.0884 22.3389 26.9345 21.6648 26.944 20.983C26.9423 20.1638 27.1673 19.3601 27.5941 18.6609C28.0808 17.8909 28.7797 17.2781 29.6066 16.8961C30.5146 16.4423 31.6498 16.2153 33.0122 16.2149C33.8101 16.2085 34.6072 16.2655 35.3961 16.3852C35.9674 16.4577 36.5259 16.6087 37.0558 16.8342C37.0978 16.8462 37.1365 16.8679 37.1687 16.8974C37.2009 16.927 37.2258 16.9636 37.2415 17.0044C37.2624 17.0801 37.2729 17.1582 37.2725 17.2367V20.3638C37.2746 20.4002 37.2672 20.4365 37.2509 20.4691C37.2346 20.5017 37.21 20.5294 37.1796 20.5495C37.1382 20.5701 37.0926 20.5809 37.0464 20.5809C37.0002 20.5809 36.9546 20.5701 36.9132 20.5496Z" fill="white"/>
<path d="M59.7334 32.8067V15.0569C59.7334 14.9184 59.7888 14.8354 59.9272 14.8354C60.9795 14.8077 63.0286 14.7523 65.05 14.7523C70.4221 14.7523 72.4158 17.7429 72.4158 20.7889C72.4158 25.1917 69.0098 27.1024 64.8285 27.1024C63.9424 27.1024 63.7209 27.1024 63.084 27.1024V32.779C63.084 32.9175 63.0286 33.0006 62.8625 33.0006H59.9549C59.8165 33.0006 59.7334 32.9452 59.7334 32.8067ZM63.084 17.7152V24.1395C63.5547 24.1672 63.9147 24.1672 64.8285 24.1672C67.1546 24.1672 69.1206 23.3918 69.1206 20.872C69.1206 18.8505 67.6807 17.6598 65.1331 17.6598C64.1639 17.6598 63.3886 17.6875 63.084 17.7152Z" fill="#3A3C5B"/>
<path d="M78.4907 22.9488V32.8067C78.4907 32.9452 78.463 33.0006 78.2969 33.0006H75.3617C75.1955 33.0006 75.1401 32.9175 75.1401 32.779V13.4785C75.1401 13.3677 75.1955 13.2847 75.3617 13.2847H78.2969C78.463 13.2847 78.4907 13.34 78.4907 13.4785V20.3458C79.543 19.5705 80.706 19.0721 82.2844 19.0721C84.3889 19.0721 86.9087 20.1243 86.9087 24.5549V32.7514C86.9087 32.9452 86.8257 33.0006 86.6872 33.0006H83.8074C83.6412 33.0006 83.5581 32.9175 83.5581 32.7514V24.8871C83.5581 23.0319 82.7551 21.9796 81.149 21.9796C80.1245 21.9796 79.2107 22.3119 78.4907 22.9488Z" fill="#3A3C5B"/>
<path d="M96.2892 19.0721C100.554 19.0721 102.88 22.3119 102.88 26.1055C102.88 30.3976 100.138 33.2775 96.2339 33.2775C91.6095 33.2775 89.5604 29.7054 89.5604 26.1886C89.5604 22.2565 92.1356 19.0721 96.2892 19.0721ZM96.1231 21.8688C94.2678 21.8688 92.9386 23.5026 92.9386 26.1332C92.9386 28.6808 94.1847 30.453 96.2892 30.453C98.0061 30.453 99.4737 29.0408 99.4737 26.1886C99.4737 23.8903 98.4768 21.8688 96.1231 21.8688Z" fill="#3A3C5B"/>
<path d="M112.122 30.5638V32.5575C112.122 32.7237 112.095 32.8344 111.956 32.8898C111.209 33.1667 110.516 33.2775 109.603 33.2775C107.332 33.2775 105.975 32.1698 105.975 29.4284V22.1457H104.23C104.092 22.1181 104.037 22.0627 104.037 21.8965V19.5705C104.037 19.4044 104.092 19.349 104.258 19.349H106.003C106.03 18.3798 106.141 16.6353 106.28 15.943C106.307 15.8045 106.363 15.7215 106.501 15.6938L109.298 15.3061C109.436 15.2784 109.492 15.3061 109.492 15.4446C109.409 16.3584 109.353 17.9921 109.353 19.349H112.039C112.178 19.349 112.233 19.4044 112.233 19.5428V21.9519C112.233 22.0904 112.178 22.1457 112.039 22.1457H109.326V28.7085C109.326 29.9269 109.713 30.5084 110.904 30.5084C111.264 30.5084 111.569 30.4807 111.956 30.3976C112.039 30.3699 112.122 30.3976 112.122 30.5638Z" fill="#3A3C5B"/>
<path d="M120.275 19.0721C124.54 19.0721 126.866 22.3119 126.866 26.1055C126.866 30.3976 124.124 33.2775 120.22 33.2775C115.596 33.2775 113.547 29.7054 113.547 26.1886C113.547 22.2565 116.122 19.0721 120.275 19.0721ZM120.109 21.8688C118.254 21.8688 116.925 23.5026 116.925 26.1332C116.925 28.6808 118.171 30.453 120.275 30.453C121.992 30.453 123.46 29.0408 123.46 26.1886C123.46 23.8903 122.463 21.8688 120.109 21.8688Z" fill="#3A3C5B"/>
<path d="M137.623 22.5611C136.765 22.0904 135.38 21.7581 134.162 21.7581C132.694 21.7581 132.196 22.3673 132.196 22.9488C132.196 23.558 132.611 23.9733 134.383 24.6656C137.54 25.8286 138.62 27.0747 138.62 29.0408C138.62 31.6437 136.571 33.2775 133.165 33.2775C131.531 33.2775 130.091 32.9729 129.26 32.5021C129.122 32.4191 129.067 32.3637 129.067 32.1975V29.5669C129.067 29.4284 129.177 29.3731 129.288 29.4284C130.479 30.2038 132.002 30.5361 133.248 30.5361C134.688 30.5361 135.38 30.0376 135.38 29.3177C135.38 28.6254 134.854 28.1824 133.137 27.4901C130.119 26.3825 129.039 25.1364 129.039 23.1426C129.039 21.0381 130.756 19.0721 134.217 19.0721C135.823 19.0721 137.042 19.2936 137.706 19.6259C137.845 19.7089 137.872 19.8197 137.872 19.9582V22.395C137.872 22.5334 137.789 22.6165 137.623 22.5611Z" fill="#3A3C5B"/>
<path d="M144.338 22.9488V32.8067C144.338 32.9452 144.31 33.0006 144.144 33.0006H141.209C141.042 33.0006 140.987 32.9175 140.987 32.779V13.4785C140.987 13.3677 141.042 13.2847 141.209 13.2847H144.144C144.31 13.2847 144.338 13.34 144.338 13.4785V20.3458C145.39 19.5705 146.553 19.0721 148.131 19.0721C150.236 19.0721 152.756 20.1243 152.756 24.5549V32.7514C152.756 32.9452 152.673 33.0006 152.534 33.0006H149.654C149.488 33.0006 149.405 32.9175 149.405 32.7514V24.8871C149.405 23.0319 148.602 21.9796 146.996 21.9796C145.971 21.9796 145.058 22.3119 144.338 22.9488Z" fill="#3A3C5B"/>
<path d="M162.136 19.0721C166.401 19.0721 168.727 22.3119 168.727 26.1055C168.727 30.3976 165.985 33.2775 162.081 33.2775C157.456 33.2775 155.407 29.7054 155.407 26.1886C155.407 22.2565 157.983 19.0721 162.136 19.0721ZM161.97 21.8688C160.115 21.8688 158.786 23.5026 158.786 26.1332C158.786 28.6808 160.032 30.453 162.136 30.453C163.853 30.453 165.321 29.0408 165.321 26.1886C165.321 23.8903 164.324 21.8688 161.97 21.8688Z" fill="#3A3C5B"/>
<path d="M176.949 19.0721C181.518 19.0721 183.789 22.1734 183.789 25.7179C183.789 30.7853 179.691 33.2775 175.509 33.2775C175.205 33.2775 174.928 33.2498 174.679 33.2221V38.2065C174.679 38.3172 174.651 38.4003 174.485 38.428C173.516 38.5387 171.66 38.7049 171.522 38.7049C171.356 38.7049 171.328 38.6772 171.328 38.5387V21.9519C171.328 21.6196 171.3 20.7058 171.245 20.3181C171.245 20.2905 171.245 20.2074 171.356 20.1797C172.602 19.7643 174.54 19.0721 176.949 19.0721ZM176.645 21.9242C175.897 21.9242 175.288 22.0073 174.679 22.2011V30.3699C174.983 30.453 175.426 30.453 175.786 30.453C177.946 30.453 180.355 29.1792 180.355 25.9394C180.355 23.4195 178.998 21.9242 176.645 21.9242Z" fill="#3A3C5B"/>
</svg>
