<svg width="77" height="30" viewBox="0 0 77 30" fill="none" xmlns="http://www.w3.org/2000/svg">
<path d="M44.0701 0.56888C42.5846 1.31342 41.9409 2.70324 41.9409 6.4756C41.9409 6.4756 42.6837 5.73106 43.8721 5.28433C44.7386 4.96169 45.3576 4.53978 45.8032 4.21715C47.0907 3.24924 47.2887 2.08279 47.2887 0.0476984C47.264 0.0476984 45.2338 -0.0763924 44.0701 0.56888Z" fill="#3A3C5B"/>
<path d="M34.9838 1.43766C33.6963 2.50484 33.3745 4.34139 33.3745 4.34139L29.215 20.3243L25.7984 7.24511C25.4765 5.8553 24.8328 4.14284 23.8672 2.95157C22.6788 1.43766 20.2029 1.33839 19.9058 1.33839C19.683 1.33839 17.2319 1.43766 15.9445 2.95157C14.9789 4.14284 14.3352 5.8553 14.0133 7.24511L10.7947 20.3243L6.63528 4.34139C6.63528 4.34139 6.31342 2.62894 5.02597 1.43766C2.99578 -0.398879 0 0.0478477 0 0.0478477L7.92272 29.9537C7.92272 29.9537 10.4976 30.1771 11.785 29.5318C13.4934 28.6632 14.3599 28.0427 15.3255 23.9477C16.2911 20.2995 18.866 9.67729 19.064 8.93275C19.1631 8.61011 19.3859 7.6422 20.0296 7.6422C20.6733 7.6422 20.8962 8.51084 20.9952 8.93275C21.218 9.67729 23.7682 20.2995 24.7337 23.9477C25.7984 28.0179 26.5411 28.6632 28.2742 29.5318C29.5616 30.1771 32.1365 29.9537 32.1365 29.9537L40.0097 0.0478477C40.0097 0.0478477 37.014 -0.374061 34.9838 1.43766Z" fill="#3A3C5B"/>
<path d="M47.2653 4.86227C47.2653 4.86227 46.7206 5.60682 45.656 6.25209C44.9133 6.674 44.2696 6.89736 43.5268 7.31927C42.2394 7.96454 41.9175 8.60981 41.9175 9.57772V29.8542C41.9175 29.8542 43.9477 30.0775 45.2351 29.4322C46.9435 28.5636 47.2653 27.7198 47.2653 24.0715V4.86227Z" fill="#3A3C5B"/>
<path d="M66.948 15.0629L77 0.147197C77 0.147197 72.8406 -0.597347 70.6866 1.33847C69.3001 2.52974 67.9136 4.76337 67.9136 4.76337L64.2741 10.1241C64.0513 10.4467 63.8532 10.6701 63.5314 10.6701C63.2095 10.6701 62.8877 10.3475 62.7886 10.1241L59.1491 4.76337C59.1491 4.76337 57.6636 2.62901 56.3762 1.33847C54.2469 -0.597347 50.0628 0.147197 50.0628 0.147197L59.7928 15.0381L49.8399 29.929C49.8399 29.929 54.2222 30.475 56.3762 28.5392C57.7626 27.3479 59.0501 25.3128 59.0501 25.3128L62.6896 19.9521C62.9124 19.6294 63.1105 19.4061 63.4323 19.4061C63.7542 19.4061 64.0761 19.7287 64.1751 19.9521L67.8146 25.3128C67.8146 25.3128 69.2011 27.3479 70.4885 28.5392C72.6177 30.475 76.901 29.929 76.901 29.929L66.948 15.0629Z" fill="#3A3C5B"/>
</svg>
